/* XPM */
static char *_0905c5fb8d342f6e4315aa0003db147MSsrFeVFCdMKza0T[] = {
/* columns rows colors chars-per-pixel */
"32 32 186 2 ",
"   c None",
".  c #011434",
"X  c #2B263D",
"o  c #40343F",
"O  c #282B43",
"+  c #312D43",
"@  c #2A384F",
"#  c #283248",
"$  c #3B354C",
"%  c #373748",
"&  c #2F3750",
"*  c #263950",
"=  c #323651",
"-  c #343B53",
";  c #3C3C52",
":  c #3B3E5D",
">  c #363D59",
",  c #333C61",
"<  c #3C3F60",
"1  c #463643",
"2  c #49374A",
"3  c #583C4A",
"4  c #413E52",
"5  c #4E3E50",
"6  c #553F54",
"7  c #692F43",
"8  c #64374B",
"9  c #663952",
"0  c #713751",
"q  c #3D415D",
"w  c #354562",
"e  c #3E5676",
"r  c #444155",
"t  c #44445C",
"y  c #4B495F",
"u  c #49455B",
"i  c #5B4656",
"p  c #544A58",
"a  c #5D515D",
"s  c #75454B",
"d  c #6E5445",
"f  c #7E5B49",
"g  c #7D5A47",
"h  c #6B4A51",
"j  c #654A58",
"k  c #764559",
"l  c #6B545C",
"z  c #67585C",
"x  c #7A5C59",
"c  c #7F6947",
"v  c #7F6449",
"b  c #7E6056",
"n  c #73635E",
"m  c #4C4C62",
"M  c #404663",
"N  c #514D62",
"B  c #4D5168",
"V  c #565067",
"C  c #5F5967",
"Z  c #53536A",
"A  c #5F506A",
"S  c #4C5473",
"D  c #4A5479",
"F  c #555A72",
"G  c #5B5B72",
"H  c #575A76",
"J  c #645263",
"K  c #685A65",
"L  c #755E69",
"P  c #4B617E",
"I  c #566078",
"U  c #6D626E",
"Y  c #6D6265",
"T  c #786567",
"R  c #64637A",
"E  c #6E6978",
"W  c #786C73",
"Q  c #803D51",
"!  c #A23A48",
"~  c #96404F",
"^  c #90484A",
"/  c #8A4555",
"(  c #864B59",
")  c #914B54",
"_  c #AC4951",
"`  c #A04E56",
"'  c #816643",
"]  c #83634C",
"[  c #8E664B",
"{  c #866C4C",
"}  c #8D6D4E",
"|  c #9A6C4C",
" . c #8E704F",
".. c #93724E",
"X. c #9A764D",
"o. c #876354",
"O. c #8A6552",
"+. c #8C6C52",
"@. c #84665B",
"#. c #826B5A",
"$. c #856D57",
"%. c #966B52",
"&. c #966C56",
"*. c #8D7151",
"=. c #8B7058",
"-. c #947351",
";. c #9C7453",
":. c #9A7A5D",
">. c #9C7852",
",. c #A47B4C",
"<. c #A37C55",
"1. c #856F65",
"2. c #926E64",
"3. c #8D7569",
"4. c #85716A",
"5. c #937961",
"6. c #816E75",
"7. c #947E76",
"8. c #AD7B6B",
"9. c #AB8359",
"0. c #BB8E5E",
"q. c #B1865A",
"w. c #BE905F",
"e. c #AA8465",
"r. c #A68068",
"t. c #AD8169",
"y. c #BC8F60",
"u. c #B38668",
"i. c #BF9160",
"p. c #A58876",
"a. c #BD8579",
"s. c #C08F5A",
"d. c #C9965D",
"f. c #CB985F",
"g. c #D29856",
"h. c #C19261",
"j. c #C18F7B",
"k. c #6E6F86",
"l. c #616681",
"z. c #60738F",
"x. c #7D8EA2",
"c. c #9E8883",
"v. c #B9888A",
"b. c #BB978C",
"n. c #BE9B92",
"m. c #868EA1",
"M. c #8491A3",
"N. c #8895A8",
"B. c #C19880",
"V. c #CF928C",
"C. c #C29C8C",
"Z. c #C99A86",
"A. c #D89B89",
"S. c #CD9298",
"D. c #D69A93",
"F. c #D99B99",
"G. c #E69A85",
"H. c #F49583",
"J. c #D5A897",
"K. c #DBB293",
"L. c #EEA281",
"P. c #E6A395",
"I. c #E6AC94",
"U. c #F1A69A",
"Y. c #E6B797",
"T. c #FFBB92",
"R. c #D599A2",
"E. c #D7AFA3",
"W. c #EDBCA2",
"Q. c #E3BBAA",
"!. c #FDB5A4",
"~. c #FBB7A8",
"^. c #FFC49A",
"/. c #F4C3AB",
"(. c #FEC4AE",
"). c #FCC9AF",
"_. c #FFC5B3",
"`. c #FECBB4",
"'. c #FFD1B6",
"]. c #FFD8B7",
"[. c #FFD5BA",
"{. c #FFDDBD",
"}. c #FFE2A7",
"|. c #FFDFC3",
" X c #FFEAC6",
".X c #FFE5C3",
/* pixels */
"                  q t t q : : : M S S S                         ",
"                < z T n 1.3.3.3.3.7.p.4.S                       ",
"              t C =.,.<.s.f.d.d.d.d.g.e.E S                     ",
"            q K *...<.0.w.0.0.0.h.w.<.X.-.E D                   ",
"            , U X...<.y.0.0.y.9.<.<.-...X.5.Y y                 ",
"            p n +...<.0.i.0.q.>.} ..-.-.-.,.$.Z                 ",
"          m #.-.+.} <.0.h.9.-...-.-.-.-.-.X.#.m                 ",
"          m @.;.*.*.-.<.<.>.....-.-.-.-.-.-.+.x p q             ",
"          4 x %.+.+.+. .} -.-.-.-.-.-.-.-.{ } | T q             ",
"          r b %.O.O.O.*.*.+.*.-.-.*.*.*.+.*.-.O.K q             ",
"          r b %.O.O.O.O.+.*.*.*.*.-.-.{ c a.v.U F t             ",
"          r b %.O.O.O.O.*.*.*.-.} ] { -.t.U.R.H w               ",
"          r b %.O.O.o.O.} +.*...-.&.v e.!._.J.R                 ",
"          r b %.O.] f f g ] -.' u.W.:.:.'. XE.R                 ",
"          4 b [ O.8.j.B.Z.r.' ;.I.[.Y.p.c./.Q.G                 ",
"          r @.[ +.P._.'.|.K.:.A._.). Xn.O b.`.V                 ",
"          u o.[ +.P.~.!.).).W./.(.)..XC.o J.`.N                 ",
"          ; a @.%.u.G.!.(.`.[.{.].).(.U.a.v.W ;                 ",
"            , a b d 2.D.F.V.V.J.J.D.v.S.F.J .                   ",
"                r r 4 r r r r r u N m Z V                       ",
"                  = ; % # # % 7 8 > 9 0 =                       ",
"                  - j s 5 4 s ! Q y / ~ 4                       ",
"                  * k ! 2 6 _ ^ p t j h ;                       ",
"                  - i 8 $ L G.L.7.Z ( ) ;                       ",
"                  & i s 4 6.^.}.J.F / ` r                       ",
"                  * k _ 6 K H.T.C.G i h ;                       ",
"                  q A 3 $ 4 j l U k.Z %                         ",
"                    > @ m I P e z.N.l.O                         ",
"                      4 k.m.M.M.N.x.F +                         ",
"                      t J z z x L B q                           ",
"                      ; 1 1 1 3 1 X                             ",
"                        ; q ; q -                               "
};
