/* XPM */
static char *_000[] = {
/* columns rows colors chars-per-pixel */
"32 32 189 2 ",
"   c None",
".  c #493F30",
"X  c #4C433D",
"o  c #192950",
"O  c #2B2D43",
"+  c #27304D",
"@  c #2C354A",
"#  c #3C3547",
"$  c #34364D",
"%  c #38394F",
"&  c #353648",
"*  c #202D52",
"=  c #2C3453",
"-  c #363953",
";  c #3C3C52",
":  c #3A3E5E",
">  c #382E48",
",  c #303A61",
"<  c #2D3C6A",
"1  c #432E46",
"2  c #443643",
"3  c #493347",
"4  c #4D3B45",
"5  c #473C4A",
"6  c #5C3E4D",
"7  c #69354B",
"8  c #603745",
"9  c #72314B",
"0  c #733B4F",
"q  c #653F51",
"w  c #3D415D",
"e  c #3E4967",
"r  c #43404E",
"t  c #4C404B",
"y  c #55454C",
"u  c #43445C",
"i  c #4B475B",
"p  c #4C4754",
"a  c #564953",
"s  c #594752",
"d  c #6A454C",
"f  c #78484C",
"g  c #604853",
"h  c #7F4B53",
"j  c #67575A",
"k  c #745B59",
"l  c #795E5C",
"z  c #735B53",
"x  c #7C6445",
"c  c #7F6948",
"v  c #786456",
"b  c #76635B",
"n  c #756356",
"m  c #464966",
"M  c #4D4C64",
"N  c #474D6C",
"B  c #524D63",
"V  c #5D5362",
"C  c #56556C",
"Z  c #585369",
"A  c #434F74",
"S  c #4D5473",
"D  c #475275",
"F  c #5C5D75",
"G  c #4A576E",
"H  c #6A5860",
"J  c #665B68",
"K  c #605761",
"L  c #5C637A",
"P  c #56667D",
"I  c #67616E",
"U  c #7A6967",
"Y  c #61647C",
"T  c #776A77",
"R  c #7D717A",
"E  c #983B49",
"W  c #83494D",
"Q  c #8D464F",
"!  c #994A4F",
"~  c #9A454D",
"^  c #8B4750",
"/  c #904B54",
"(  c #AA404C",
")  c #A74A51",
"_  c #B04B52",
"`  c #AE5353",
"'  c #B05453",
"]  c #836947",
"[  c #846A4A",
"{  c #896D4C",
"}  c #836546",
"|  c #916A4D",
" . c #93724E",
".. c #9D774E",
"X. c #8B6F51",
"o. c #836A5C",
"O. c #946D53",
"+. c #8D7051",
"@. c #937351",
"#. c #997452",
"$. c #9C7952",
"%. c #927458",
"&. c #9B795C",
"*. c #A77D4D",
"=. c #A37D55",
"-. c #A37E58",
";. c #8E6167",
":. c #97666B",
">. c #8D7569",
",. c #897267",
"<. c #867077",
"1. c #977A76",
"2. c #9B776A",
"3. c #A06B6E",
"4. c #B27B72",
"5. c #AB7D6B",
"6. c #AB804B",
"7. c #AF865B",
"8. c #B2875B",
"9. c #B68A5E",
"0. c #BC8E5E",
"q. c #BE905E",
"w. c #AD8769",
"e. c #B58D64",
"r. c #B2866E",
"t. c #BF9060",
"y. c #A3887A",
"u. c #A9817F",
"i. c #BE8D75",
"p. c #B99378",
"a. c #C5935D",
"s. c #C8965E",
"d. c #CD985E",
"f. c #D79C58",
"g. c #C29362",
"h. c #C2897A",
"j. c #C9937E",
"k. c #C2876D",
"l. c #5F6C83",
"z. c #646B82",
"x. c #6A6E84",
"c. c #6C7289",
"v. c #72758D",
"b. c #6D7497",
"n. c #707B90",
"m. c #947F8A",
"M. c #798098",
"N. c #7A889B",
"B. c #768098",
"V. c #A88787",
"C. c #BE8792",
"Z. c #848FA6",
"A. c #8E91A7",
"S. c #8C9EB0",
"D. c #94A2B8",
"F. c #C28581",
"G. c #C19487",
"H. c #CE9496",
"J. c #D59A93",
"K. c #D59897",
"L. c #CE9590",
"P. c #DDB299",
"I. c #CDA690",
"U. c #F3A08E",
"Y. c #E6A595",
"T. c #F1A894",
"R. c #ECB99F",
"E. c #FDB693",
"W. c #F3B79D",
"Q. c #DBB3A3",
"!. c #FEAFA0",
"~. c #FEB6A5",
"^. c #FDBAA7",
"/. c #E4B0A3",
"(. c #FFD19F",
"). c #F7C7AD",
"_. c #FCC5AD",
"`. c #FECCAD",
"'. c #FFCBB2",
"]. c #FFCCB9",
"[. c #FFC2B0",
"{. c #FFD1B5",
"}. c #FFD8BC",
"|. c #FFE1BF",
" X c #A6A3C0",
".X c #AAAFC2",
"XX c #B6BBCD",
"oX c #FFDDC4",
"OX c #FFE2C1",
/* pixels */
"                    S S S e : w : : w w w w                     ",
"                  A U y.1.>.,.>.>.>.,.b U j :                   ",
"                  T e.f.a.s.s.s.s.d.a.=.6.%.V                   ",
"              D T e.a.0.0.0.0.0.0.0.0.0.-. .X.K w               ",
"              < R d.s.8.9.9.9.9.9.9.0.g.-. . .I ,               ",
"              i b 7.q.0.0.0.0.0.0.0.0.8.$. .X.j i               ",
"            u o...@.8.t.0.0.0.0.0.t.9.#. .@.+.O.l u             ",
"            u o.*. .$.=.=.=.=.-.-.-.$. . .+.+...o.u             ",
"            $ v =.@. . .@.@.{ ] } { @.@.+.X.+.$.n $             ",
"            % v $.@.@.@.@.+.+.@.@.+.+.+.+.+.+.#.v %             ",
"            % k @.+.@.+.] x 5.Y.R.p.[ +.@.X.+.$.v %             ",
"            % k O.X.c %.r.w.J.].oXI.x x { +.+.#.v %             ",
"            % k O.+.[ i.~.~.^.{.{.p.} O.O.+.+.O.k %             ",
"            % l | %.j.!.^.'.`.{.}.w.O.T.h.c +.#.k %             ",
"            % l } [ W./.1.R.{.`.'.P.p.V.2.{ ] | k %             ",
"            ; l | &.`.V.O I.|.).).OXQ.$ X $.&.#.k ;             ",
"            ; z 5.Y.}.y.2 I.OX).).OXP.4 . w.Y.k.z ;             ",
"              r 1.[.].J.h.~.{._._.'.~.F.4.T._.u.5               ",
"              = T J.H.C.H.J.J.J.J.J.J.K.H.K.J.T =               ",
"            ; y a M M M M B Z F F Z B B M M B s y ;             ",
"            + a f 9 5 6 9 > e b.b.N + @ 7 7 $ y g +             ",
"            H p 8 ( ! ! E 3 L  X XY # f ~ ~ W 4 p H             ",
"        o <.E.U O f ) ) d & Y .X.XP 3 ) ^ h _ 1 U E.<.          ",
"        * m.(.E.;.r d ` ! 3 l.XXXXz.# W ' Q q :.E.(.m.          ",
"          J G.U.3.$ % h Q 1 G A.A.C O t / 0 = :.U.G.J           ",
"            u w $ ; u m u ; u F F u ; u m u ; $ w u             ",
"                  ; Y c.z.x.c.v.v.c.x.z.c.L ;                   ",
"                  ; B.D.Z.M.v.v.v.v.M.Z.D.M.;                   ",
"                  ; n.S.N.L u u u u L N.S.n.;                   ",
"                  u V k j M -     - M j k V u                   ",
"                  % 2 4 2 #         # 2 4 2 %                   ",
"                    - m ;             ; m -                     "
};
