/* XPM */
static char *_000[] = {
/* columns rows colors chars-per-pixel */
"32 32 185 2 ",
"   c None",
".  c #111B3B",
"X  c #392E3F",
"o  c #1A2447",
"O  c #1F354F",
"+  c #272B47",
"@  c #2C344C",
"#  c #283649",
"$  c #3C3544",
"%  c #383348",
"&  c #38394F",
"*  c #36374D",
"=  c #2A3950",
"-  c #2B3A56",
";  c #313751",
":  c #333A52",
">  c #3A3B53",
",  c #3B3E5C",
"<  c #333B62",
"1  c #383E60",
"2  c #483743",
"3  c #483F4F",
"4  c #453746",
"5  c #5B3C4F",
"6  c #443D51",
"7  c #413F58",
"8  c #4C3A51",
"9  c #573A56",
"0  c #702D44",
"q  c #653C49",
"w  c #77364D",
"e  c #3D415D",
"r  c #364867",
"t  c #3C4A6A",
"y  c #454155",
"u  c #43445D",
"i  c #4D445A",
"p  c #4D4B5D",
"a  c #494557",
"s  c #5A4655",
"d  c #554B5B",
"f  c #6C494E",
"g  c #6F474C",
"h  c #7C464B",
"j  c #6F5445",
"k  c #7E5B49",
"l  c #7D5A47",
"z  c #6B4457",
"x  c #674758",
"c  c #754256",
"v  c #7B4B5B",
"b  c #62545B",
"n  c #6A555C",
"m  c #6D5A5D",
"M  c #6D5657",
"N  c #765C58",
"B  c #765C5B",
"V  c #796643",
"C  c #7E625B",
"Z  c #7A645B",
"A  c #4B4B64",
"S  c #484A67",
"D  c #534C64",
"F  c #5A4D66",
"G  c #4C5169",
"H  c #575160",
"J  c #5D5664",
"K  c #53566E",
"L  c #5C536D",
"P  c #4D5475",
"I  c #455C7B",
"U  c #535873",
"Y  c #615762",
"T  c #635D6E",
"R  c #635B66",
"E  c #56617B",
"W  c #68606C",
"Q  c #7C6762",
"!  c #6D6876",
"~  c #766F75",
"^  c #9E3E4C",
"/  c #A13949",
"(  c #804148",
")  c #994B53",
"_  c #B0494F",
"`  c #A84A52",
"'  c #81624B",
"]  c #856A4A",
"[  c #8C6C4E",
"{  c #866646",
"}  c #926749",
"|  c #8F704E",
" . c #94734E",
".. c #9A744C",
"X. c #846353",
"o. c #8A6552",
"O. c #8B6D51",
"+. c #88675F",
"@. c #906750",
"#. c #956C52",
"$. c #8D7151",
"%. c #8A7058",
"&. c #947351",
"*. c #9B7651",
"=. c #9C7955",
"-. c #9C7A5D",
";. c #99765A",
":. c #A57D4C",
">. c #A37D55",
",. c #86666D",
"<. c #946F65",
"1. c #877066",
"2. c #8A7266",
"3. c #8E766B",
"4. c #827169",
"5. c #9D7A60",
"6. c #8F737C",
"7. c #947E75",
"8. c #997D7C",
"9. c #AE7D67",
"0. c #AB8258",
"q. c #BB8E5E",
"w. c #B78B5C",
"e. c #9D8577",
"r. c #BD8F60",
"t. c #B58166",
"y. c #BE9060",
"u. c #C6945D",
"i. c #CC975C",
"p. c #CA965B",
"a. c #C19260",
"s. c #C18F7B",
"d. c #CF917E",
"f. c #DB9B7E",
"g. c #676A82",
"h. c #727389",
"j. c #8A768D",
"k. c #917E8C",
"l. c #AB7D87",
"z. c #728096",
"x. c #7686A0",
"c. c #9D8687",
"v. c #9F888E",
"b. c #98858C",
"n. c #928491",
"m. c #A48F8B",
"M. c #B98587",
"N. c #818AA0",
"B. c #8391A3",
"V. c #8794A7",
"C. c #CD8F89",
"Z. c #CC9984",
"A. c #CF918F",
"S. c #C29880",
"D. c #D0988F",
"F. c #DB968E",
"G. c #D99D95",
"H. c #DD9C9F",
"J. c #E29D8B",
"K. c #E39F92",
"L. c #CCA284",
"P. c #D0A284",
"I. c #C3A398",
"U. c #D8AB98",
"Y. c #FFA187",
"T. c #F6A083",
"R. c #E9A697",
"E. c #FFBA92",
"W. c #F4A5A3",
"Q. c #EEBFA4",
"!. c #FCBCA7",
"~. c #FFBCAD",
"^. c #F8B3A2",
"/. c #FCC5AD",
"(. c #FFCAAF",
"). c #F7CAAD",
"_. c #FFD1A0",
"`. c #FFDAA4",
"'. c #FFC4B2",
"]. c #FECCB2",
"[. c #FFD3B5",
"{. c #FFDCBC",
"}. c #FFD5BB",
"|. c #FFDEC2",
" X c #FFE9CA",
/* pixels */
"                        P P S , , , e e u e                     ",
"                      ! e.e.3.2.2.3.1.Z Q b ,                   ",
"                    K 7.p.i.u.i.u.i.u.>.:.%.J                   ",
"                  U 1...*.w.a.q.q.q.q.q.>. .O.Y e               ",
"                H 4.=...&.=.>.>.q.q.q.r.>. . .T <               ",
"              < W ....&.&. .[ &.0.q.y.q.>. .O.m p               ",
"              1 R $...&.&.&.&. . .0.a.q.>.[ $. .Z u             ",
"            u b X.$.&. .&.&.&.&. .*.>.>.&.$.$.*.C u             ",
"            A +...] $.&.&.&.&.&.&.&.[ | O.O.O.#.M *             ",
"            u B #.$.$.O.$.$.&.&.$.O.$.$.O.o.o.#.N &             ",
"            A K 6.C.;.V $.&.&.$.$.$.O.O.o.o.o.#.N &             ",
"            u r j.W.d.;.$.' ] &.$.$.$.o.o.o.o.#.N &             ",
"              t k.^.'.Z.] o.;. .$.O.] o.X.o.o.#.N &             ",
"              t n.(. XP.] U.L.{ $.O.l k k ' o.#.N &             ",
"              - b.].I.7.L.[.!.9.' 5.Z.S.s.9.o.@.N >             ",
"              o v.].d Y {.[.'.R.-.L.|.[.'.K.o.} C >             ",
"              . b.{.M m {.[././.Q.).].^.~.R.o.} C >             ",
"                J c.M.F.~./.[.{.}.]./.!.J.t.#.Q d               ",
"                  + l.H.M.A.U.U.D.C.G.G.<.j C d                 ",
"                    D L A D p y y y y y 6 y y                   ",
"                    O 9 w , 8 0 $ # @ # > ;                     ",
"                    = c ^ d z / ( 3 3 h x ;                     ",
"                    ; s f p a h _ z 6 / c =                     ",
"                    = z ) F ~ f.T.,.> q s ;                     ",
"                    = v ` D m.`._.8.7 g s @                     ",
"                    ; s f G c.E.Y.,.i ` v =                     ",
"                      $ y g.! n n 6 % 5 L e                     ",
"                        S N.x.I I E G = :                       ",
"                        > z.V.B.B.V.h.u                         ",
"                          u T m n m b u                         ",
"                            X 2 2 2 4 &                         ",
"                              e > e >                           "
};
