/* XPM */
static char *e0d7b159391442b6e0e4a43fed965280C6ReX9mszTzGqklO[] = {
/* columns rows colors chars-per-pixel */
"32 32 236 2 ",
"   c #3E3B4F",
".  c #3A3A50",
"X  c #3C3C52",
"o  c #3C3C53",
"O  c #3F3F55",
"+  c #403C4F",
"@  c #423D4F",
"#  c #463E4E",
"$  c #4E3B4F",
"%  c #4A3F4D",
"&  c #533A4F",
"*  c #463C51",
"=  c #5A3F50",
"-  c #4C404D",
";  c #54424B",
":  c #52424C",
">  c #56424C",
",  c #55444F",
"<  c #58434A",
"1  c #5F434A",
"2  c #5A444A",
"3  c #5D444A",
"4  c #444150",
"5  c #464053",
"6  c #464254",
"7  c #4D4250",
"8  c #4E4550",
"9  c #4E4551",
"0  c #474B52",
"q  c #4F4850",
"w  c #494D55",
"e  c #4B4D54",
"r  c #4D4F55",
"t  c #414258",
"y  c #424359",
"u  c #43435B",
"i  c #43455B",
"p  c #44445B",
"a  c #46465E",
"s  c #4B4659",
"d  c #4C465A",
"f  c #4A485D",
"g  c #4B495D",
"h  c #544550",
"j  c #5A4450",
"k  c #5D4551",
"l  c #504850",
"z  c #524A52",
"x  c #564F51",
"c  c #504C5C",
"v  c #535756",
"b  c #52565F",
"n  c #5A515B",
"m  c #67434B",
"M  c #68424A",
"N  c #6B454E",
"B  c #6E454F",
"V  c #604A4B",
"C  c #6F494D",
"Z  c #77404A",
"A  c #7E454D",
"S  c #664251",
"D  c #6E4951",
"F  c #604D5B",
"G  c #714F5B",
"H  c #615F55",
"J  c #645459",
"K  c #725F56",
"L  c #5C6158",
"P  c #5E6159",
"I  c #5E655F",
"U  c #656657",
"Y  c #626D57",
"T  c #60645A",
"R  c #7B6654",
"E  c #7C6654",
"W  c #786358",
"Q  c #6C745C",
"!  c #6E755E",
"~  c #70765C",
"^  c #73785F",
"/  c #757E5E",
"(  c #4B4C64",
")  c #524D61",
"_  c #4E5068",
"`  c #505268",
"'  c #52556B",
"]  c #5A596E",
"[  c #545B70",
"{  c #565972",
"}  c #6B5E68",
"|  c #5D6161",
" . c #7C6D6B",
".. c #697560",
"X. c #777A61",
"o. c #747B65",
"O. c #8C3C4B",
"+. c #8F3F4C",
"@. c #9E3A4B",
"#. c #9F3A4B",
"$. c #853D51",
"%. c #A2394B",
"&. c #80494E",
"*. c #914652",
"=. c #9B4954",
"-. c #A24A51",
";. c #A64A51",
":. c #8A6552",
">. c #8A6652",
",. c #8B6852",
"<. c #8C6D51",
"1. c #8C6E51",
"2. c #8D6F51",
"3. c #876E5E",
"4. c #8D7051",
"5. c #8E7051",
"6. c #8F7151",
"7. c #917251",
"8. c #937250",
"9. c #947250",
"0. c #947350",
"q. c #957350",
"w. c #977451",
"e. c #987551",
"r. c #9C7853",
"t. c #9E7A54",
"y. c #A37D55",
"u. c #836664",
"i. c #8B7262",
"p. c #8E7667",
"a. c #8E6B76",
"s. c #9B7779",
"d. c #90797A",
"f. c #A17A77",
"g. c #A67578",
"h. c #A97778",
"j. c #A47B7C",
"k. c #7D8260",
"l. c #7D8760",
"z. c #7A8064",
"x. c #B3885B",
"c. c #B58A5C",
"v. c #B88B5D",
"b. c #B88C5D",
"n. c #B98C5D",
"m. c #BA8D5E",
"M. c #88866D",
"N. c #859062",
"B. c #879362",
"V. c #8D9863",
"C. c #899E61",
"Z. c #8D9964",
"A. c #8E9A64",
"S. c #8C9868",
"D. c #858F71",
"F. c #AE8369",
"G. c #B4876E",
"H. c #AB827C",
"J. c #AC8A7A",
"K. c #AD887D",
"L. c #B68C71",
"P. c #BC887B",
"I. c #BA8D7F",
"U. c #B89275",
"Y. c #BF987B",
"T. c #8EA463",
"R. c #90A867",
"E. c #9BAA67",
"W. c #9EBA63",
"Q. c #9FBB63",
"!. c #98A671",
"~. c #A0BD63",
"^. c #A1B06B",
"/. c #A5B569",
"(. c #AABB6B",
"). c #D3867A",
"_. c #D5887D",
"`. c #A4C263",
"'. c #AFC16C",
"]. c #B1C26E",
"[. c #B8CB6F",
"{. c #BBCE6F",
"}. c #C0D470",
"|. c #C8D675",
" X c #C9D675",
".X c #D2E077",
"XX c #686C82",
"oX c #6D7289",
"OX c #6B758C",
"+X c #7A778C",
"@X c #74798F",
"#X c #757A90",
"$X c #747B91",
"%X c #777F95",
"&X c #768398",
"*X c #7B8399",
"=X c #9D8380",
"-X c #858098",
";X c #BB8683",
":X c #938FA1",
">X c #8091A5",
",X c #9690A8",
"<X c #ACA4BC",
"1X c #CA948F",
"2X c #D99583",
"3X c #D1978D",
"4X c #DB9C8C",
"5X c #DC9F8C",
"6X c #F69784",
"7X c #E19B9B",
"8X c #DCA389",
"9X c #D1A396",
"0X c #FBA88C",
"qX c #E9A695",
"wX c #E6A09C",
"eX c #EEA79E",
"rX c #EFA99A",
"tX c #EFAA9A",
"yX c #F3AC9F",
"uX c #F6AE9F",
"iX c #FFB893",
"pX c #F3AFA1",
"aX c #EEB0A4",
"sX c #F9B7A4",
"dX c #F5BBA4",
"fX c #F9B9A5",
"gX c #FABBA6",
"hX c #FBBDA8",
"jX c #F8C5AA",
"kX c #FDC4AC",
"lX c #FFCBB0",
"zX c #BEB6CE",
"xX c #C3BAD2",
"cX c #C6BDD5",
"vX c #D2C9DE",
"bX c #EBE4F2",
/* pixels */
"}.}.}.}.}.}.}.}.}.!.{ { _ a a a a a a a a ].}.}.}.}.}.}.}.}.}.}.",
"}.}.}.}.}.}.}.}.D.M.p.p.i.3.3.3.3.3.W K K z.S.}.}.}.}.}.}.}.}.}.",
"}.}.}.}.}.}.}.}.{  .m.m.m.m.m.m.m.m.t.q.q.c I `.`.`.`.}.}.}.}.}.",
"}.}.}.`.`.`.R.{ m.m.m.m.m.m.m.m.m.m.m.c.q.5.R a `.`.`.`.}.}.}.}.",
"}.}.`.`.`.`.T.( m.m.m.m.m.m.m.m.m.m.m.c.q.5.R a `.`.`.`.}.}.}.}.",
"}.}.`.`.`.Q.C.g v.m.m.m.m.m.m.m.m.m.m.x.q.5.E g Q.~.`.`.}.}.}.}.",
"}.}.`.`.`.b n q.q.y.m.m.m.m.m.m.m.m.t.q.q.5.<.:.a ..`.}.}.}.}.}.",
"}.}.`.`.`.w z q.q.e.r.r.r.r.r.r.r.r.w.q.5.5.<.<.o Q }.}.}.}.}.}.",
"}.}.}.`.`.0 z q.q.q.q.q.q.q.q.q.q.q.q.7.5.5.5.5.. Q `.`.`.}.}.}.",
"}.}.}.}.}.w q 5.q.q.q.q.7.5.5.5.5.5.5.5.5.5.5.5.. Y `.`.`.`.}.}.",
"}.}.}.}.}.w 9 :.5.5.5.5.5.5.tXdXjX5.5.5.5.5.5.5.. Y `.`.`.`.}.}.",
"}.}.}.}.}.w 9 :.5.5.5.F.F.F.sXkXlX5.<.<.5.5.<.<.. Q `.`.`.}.}.}.",
"}.}.}.}.}.w 9 :.5.5.5.uXuXuXlXlXlX5.,.:.5.5.<.:.. Q }.}.}.}.}.}.",
"}.}.}.}.}.w 9 :.5.G.uXuXhXlXlXlXlX5.5XqX5.5.<.:.. Q }.}.}.}.}.}.",
"}.}.}.}.}.w 9 :.5.L.gXj.9XlXlXlXlXY.H.f.5.5.<.:.. Q }.}.}.}.}.}.",
"}.}.}.}.}.w 9 :.5.U.lX. =XlXlXlXlXlX} 5 5.5.<.:.. Q }.}.}.}.}.}.",
"}.}.}.}.}.w 9 :.uXgXlX2 K.lXlXlXlXlXu.V 5.qX4X:.. Q }.}.}.}.}.}.",
"}.}.}.}.}.Z.k.J uXpXaXg.s.d.d.d.d.gX;Xh.P.tX3XJ B.E.}.}.}.}.}.}.",
"}.}.}.}.}.}.^.a uXeX7X7Xa.. . . . uXwX7X7XyX1Xa }.}.}.}.}.}.}.}.",
"}.}.}..X.Xr @ 2 a a a . :XbXbXbXbX. u a a a s 2 . ^ .X}.}.}.}.}.",
"}.}..X.X.Xr $ O.h S $.. ] +XvXvXvX. 7 j $.j , 2 . ^ .X.X.X}.}.}.",
"}.}..X.X.Xr & @.1 Z @.5 d ) zXxXcX. > m @.m 3 < 6 X.|..X.X.X}.}.",
"}.}.}..X.Xr @ 2 %.+.C 6X0XiXa ,XcX. *.;.C ;.*.. iXI.a .X.X.X}.}.",
"}.}.}.}.}.(.V.@ M A -.6X0XiXa ,XcX. N &.-.= G ).iXI.a .X.X}.}.}.",
"}.}.}.}.}.}./.v ; B =._.2X8Xp -X<Xo k D =.* F ).8XJ.| }.}.}.}.}.",
"}.}.}.}.}.}.}..X. O a a a a . . . a a a a o . . a o.}.}.}.}.}.}.",
"}.}.}.}.}.}.}..X. ` #X#X#X#X@X@X@X#X#X#X#Xu L |.[.{.}.}.}.}.}.}.",
"}.}..X.X.X}.}.}.. ' *X*X#XoXXXXXXXoX%X*X*Xu T .X}.}.}.}.}.}.}.}.",
"}..X.X.X.X.X}.}.. { >X>XOX{ a a a { &X>X>Xi T }.}.}.}.}.}.}.}.}.",
"}..X.X.X.X.X}.}.. # 2 2 % . }.}.}.. : 2 2   L }.}.}.}.}.}.}.}.}.",
"}.}..X.X.X}.}.}./ U - - H / }.}.}./ x - - ~ B.}.}.}.}.}.}.}.}.}.",
"}.}.}.}.}.}.}.}.}.Z.. . l.}.}.}.}.}.L . . '.}.}.}.}.}.}.}.}.}.}."
};
