/* XPM */
static char *_fd94478f6d54c3fc5f95bd81fdf80a911Y6cPMKqWNqx81a[] = {
/* columns rows colors chars-per-pixel */
"32 32 255 2 ",
"   c None",
".  c #3A3A50",
"X  c #3B3A50",
"o  c #3B3B50",
"O  c #3D3A50",
"+  c #3B3C52",
"@  c #3C3C52",
"#  c #3E3E55",
"$  c #403C4F",
"%  c #413D4F",
"&  c #443D4F",
"*  c #443F4E",
"=  c #4E3A4F",
"-  c #483E4D",
";  c #4A3F4D",
":  c #4B3F4D",
">  c #403E55",
",  c #413E55",
"<  c #773A4D",
"1  c #763B4D",
"2  c #733D4C",
"3  c #743C4C",
"4  c #753F4C",
"5  c #7B3F4A",
"6  c #7C3F4A",
"7  c #7D3F4A",
"8  c #7F3E4B",
"9  c #7A394D",
"0  c #7A3A4D",
"q  c #47404E",
"w  c #4A424D",
"e  c #4D444D",
"r  c #57414D",
"t  c #54474C",
"y  c #5B434E",
"u  c #5D444E",
"i  c #57484B",
"p  c #5A4A4B",
"a  c #5D4B4A",
"s  c #5B4A4F",
"d  c #414258",
"f  c #44445B",
"g  c #46465E",
"h  c #484559",
"j  c #49465D",
"k  c #48475E",
"l  c #4C455D",
"z  c #564452",
"x  c #584A51",
"c  c #534759",
"v  c #544759",
"b  c #55475A",
"n  c #5A475A",
"m  c #5B475A",
"M  c #5F475A",
"N  c #574858",
"B  c #574D5A",
"V  c #574E5B",
"C  c #59515B",
"Z  c #5F535D",
"A  c #63434A",
"S  c #67424A",
"D  c #674749",
"F  c #61464F",
"G  c #6B414A",
"H  c #6F404B",
"J  c #6E414B",
"K  c #6C424B",
"L  c #6B444A",
"P  c #68464A",
"I  c #6A404D",
"U  c #6E424F",
"Y  c #654949",
"T  c #664849",
"R  c #634F49",
"E  c #644F48",
"W  c #6D4C4B",
"Q  c #6F4D4A",
"!  c #6F4B4C",
"~  c #71404A",
"^  c #73404A",
"/  c #75404A",
"(  c #76404C",
")  c #73494E",
"_  c #77494E",
"`  c #7B494F",
"'  c #665049",
"]  c #695149",
"[  c #6A5248",
"{  c #6B524A",
"}  c #6D5348",
"|  c #6D544A",
" . c #69534F",
".. c #705547",
"X. c #71564B",
"o. c #73574C",
"O. c #75584C",
"+. c #775A4C",
"@. c #7B5C4D",
"#. c #7C5C4C",
"$. c #7D5D4C",
"%. c #7E5D4D",
"&. c #7F5E4D",
"*. c #7D5D4E",
"=. c #7F5E4E",
"-. c #654852",
";. c #664D55",
":. c #60475A",
">. c #62475A",
",. c #744554",
"<. c #7F4652",
"1. c #774952",
"2. c #70495A",
"3. c #6E5651",
"4. c #6F5651",
"5. c #6E5B57",
"6. c #605559",
"7. c #615559",
"8. c #62555E",
"9. c #695A58",
"0. c #705853",
"q. c #715853",
"w. c #725A56",
"e. c #735A56",
"r. c #705E57",
"t. c #725F57",
"y. c #77625A",
"u. c #7F695C",
"i. c #494A62",
"p. c #4A4A62",
"a. c #4D4E66",
"s. c #4D4F67",
"d. c #50536B",
"f. c #555770",
"g. c #565972",
"h. c #595B71",
"j. c #5C5F75",
"k. c #715D63",
"l. c #605E73",
"z. c #675E73",
"x. c #5C6179",
"c. c #5C6279",
"v. c #6E666D",
"b. c #726363",
"n. c #7D6466",
"m. c #726069",
"M. c #79666D",
"N. c #7A666D",
"B. c #776A6B",
"V. c #803E4B",
"C. c #873D4B",
"Z. c #843E4B",
"A. c #843F4B",
"S. c #803F4C",
"D. c #893D4B",
"F. c #8B3D4B",
"G. c #953B4B",
"H. c #913C4B",
"J. c #993A4B",
"K. c #873D50",
"L. c #86404D",
"P. c #84424C",
"I. c #82444D",
"U. c #83444D",
"Y. c #84444D",
"T. c #87454E",
"R. c #88464E",
"E. c #89464E",
"W. c #8D474F",
"Q. c #8F474F",
"!. c #87494F",
"~. c #88494F",
"^. c #89494F",
"/. c #8E494F",
"(. c #90484F",
"). c #805F4D",
"_. c #8A4950",
"`. c #884953",
"'. c #8E4950",
"]. c #8F4A50",
"[. c #944A50",
"{. c #954A50",
"}. c #964A50",
"|. c #9D4A51",
" X c #A14A52",
".X c #A54A52",
"XX c #81604E",
"oX c #81604F",
"OX c #82604F",
"+X c #83614F",
"@X c #84614F",
"#X c #866250",
"$X c #876351",
"%X c #886451",
"&X c #896451",
"*X c #8A6552",
"=X c #8A6752",
"-X c #8B6752",
";X c #846953",
":X c #8B6952",
">X c #8D6951",
",X c #8E6A51",
"<X c #8C6952",
"1X c #8D6952",
"2X c #8C6C51",
"3X c #8D6F51",
"4X c #8E6F51",
"5X c #846C5E",
"6X c #8D7051",
"7X c #8E7051",
"8X c #8F7151",
"9X c #907151",
"0X c #917151",
"qX c #927250",
"wX c #937250",
"eX c #947250",
"rX c #947350",
"tX c #957350",
"yX c #967450",
"uX c #977551",
"iX c #987551",
"pX c #9A7652",
"aX c #9E7953",
"sX c #9F7A54",
"dX c #A07B54",
"fX c #A27C55",
"gX c #A37D55",
"hX c #A47E56",
"jX c #8B6266",
"kX c #856E60",
"lX c #8C6368",
"zX c #8A7466",
"xX c #8B7567",
"cX c #827069",
"vX c #B77E76",
"bX c #B0865A",
"nX c #B1865A",
"mX c #B2875B",
"MX c #B4895C",
"NX c #B78B5D",
"BX c #B78C5F",
"VX c #B88B5D",
"CX c #B98C5E",
"ZX c #BA8D5E",
"AX c #A48262",
"SX c #B18860",
"DX c #B98B7B",
"FX c #CF8D7D",
"GX c #697085",
"HX c #6A7387",
"JX c #6F788E",
"KX c #798598",
"LX c #7C8A9C",
"PX c #F3B18F",
"IX c #F9B491",
/* pixels */
"                    g.g.f.p.g g g g g g g g                     ",
"                  h.cXxXxXkX5X5X5X5Xu.t.t.9.j                   ",
"                  v.AXZXZXZXZXZXZXZXNXdXpX;XC                   ",
"              g.B.SXBXZXZXZXZXZXZXZXZXNXfXqX2X7.g               ",
"              a.b.ZXZXZXZXZXZXZXZXZXZXZXhXtXtX7.g               ",
"              V y.bXNXZXZXZXZXZXZXZXVXbXdXtXtX5.V               ",
"            g w.1XuXbXZXZXZXZXZXZXZXbXpXtXtXtX1Xw.g             ",
"            # 0.1XtXaXfXfXfXfXfXfXfXsXuXtXtXqX1X0.#             ",
"            . 4.1XqXtXtXtXtXtXtXtXtXtXtXqXqX6X:X4..             ",
"            . 4.:X6XqXtXtXtXtXtXtXtXtXtXqX6X6X:X4..             ",
"            . 4.:X6X6X6X6X6X6X6X6X6X6X6X6X6X6X:X4..             ",
"            . 4.-X2X2X6X6X6X6X6X6X6X6X2X6X2X2X-X4..             ",
"            . 4.-X-X2X2X2X2X2X2X2X2X2X2X2X2X-X-X4..             ",
"            . 4.-X-X-X-X-X-X-X-X-X-X-X-X-X-X-X-X4..             ",
"            . 4.-X-X-X-X-X-X-X-X-X-X-X-X-X-X-X-X4..             ",
"            . 4.-X-X-X-X-X-X-X-X-X-X-X-X-X-X-X-X4..             ",
"            . 4.-X-X-X-X-X-X-X-X-X-X-X-X-X-X-X-X4..             ",
"              x 4.-X).+X-X&.+X-X&.+X$X&.@X$X&. .x               ",
"              & s +X| X.+X{ o.&.{ O.&.E O.@.E r =               ",
"            . y Q ..e t } w i { q p ' & a R $ 0 0 .             ",
"            . u ! Q 4 J T 2 J T 4 J D < L L < S.I .             ",
"            k.;.F -.P.C.^ C.6 ^ F.6 / F.5 ( K.U ;.k.            ",
"        g N.PXn., j -.P.J.G 6 G.S V.H.A C.K.l , n.PXN.g         ",
"        g N.IXFXlX, <.W.U.W.E.U.W.E.T.(.T.U , lXFXIXN.g         ",
"          m.DXvXjXO ,.`.!.[.].~.[./.~.[.1.z . jXvXDXm.          ",
"            . . . . f 2..X` `. X_ ].|.) N f . . . .             ",
"                . + j.z.:.b n :.b n M c l.j.+ .                 ",
"                  @ GXJXx.d.p.g g p.d.x.JXGX@                   ",
"                  @ GXLXKXx.a.g g a.x.KXLXGX@                   ",
"                  . V 8.Z h d     d h Z 8.V .                   ",
"                  . - - - $         $ - - - .                   ",
"                    . . .             . . .                     "
};
