/* XPM */
static char *result[] = {
/* columns rows colors chars-per-pixel */
"32 32 213 2 ",
"   c #EAE27B",
".  c #5C4E92",
"X  c #5E5093",
"o  c #605295",
"O  c #655895",
"+  c #65589A",
"@  c #6C5F9C",
"#  c #735F96",
"$  c #6D6197",
"%  c #6E619C",
"&  c #6E619D",
"*  c #6F629C",
"=  c #746096",
"-  c #746097",
";  c #756197",
":  c #706499",
">  c #756699",
",  c #7E6798",
"<  c #756999",
"1  c #75699A",
"2  c #766A9A",
"3  c #7F749D",
"4  c #6F65A4",
"5  c #786BA3",
"6  c #7B6FA4",
"7  c #7B6FA5",
"8  c #746BA8",
"9  c #766DAA",
"0  c #776EAA",
"q  c #7C73A7",
"w  c #7E72A6",
"e  c #7F76A6",
"r  c #7B72AB",
"t  c #7F77A8",
"y  c #816999",
"u  c #81769D",
"i  c #8C719B",
"p  c #8E739B",
"a  c #8F749C",
"s  c #8473A0",
"d  c #8073A7",
"f  c #8276A8",
"g  c #8077AB",
"h  c #8579AA",
"j  c #877CA9",
"k  c #887CA9",
"l  c #8B7FAC",
"z  c #8A7EAD",
"x  c #8A7FAD",
"c  c #ADA492",
"v  c #8D83A1",
"b  c #8C82A3",
"n  c #8E84A8",
"m  c #9181A0",
"M  c #9087A2",
"N  c #9286A3",
"B  c #9280A4",
"V  c #9380A4",
"C  c #9086A6",
"Z  c #9289A2",
"A  c #9188AD",
"S  c #968BAD",
"D  c #958EAF",
"F  c #9990A5",
"G  c #9A91A5",
"H  c #998FB0",
"J  c #9A8EB6",
"K  c #9790B0",
"L  c #9D92B8",
"P  c #A995A5",
"I  c #A893AC",
"U  c #AA95AC",
"Y  c #A099AA",
"T  c #AC99AE",
"R  c #AF9BAE",
"E  c #AE9EAF",
"W  c #BB94A4",
"Q  c #A19BB2",
"!  c #A196BA",
"~  c #A297BB",
"^  c #A298BC",
"/  c #A398BC",
"(  c #A69CBE",
")  c #AAA2AA",
"_  c #ACA5AA",
"`  c #AFA4AC",
"'  c #AFA8AB",
"]  c #B0A9AC",
"[  c #BEABAB",
"{  c #BAB4AF",
"}  c #ADA4B3",
"|  c #AAA0B8",
" . c #B3AAB3",
".. c #B5AFB5",
"X. c #B6B2B5",
"o. c #BFB9B0",
"O. c #C6BE97",
"+. c #C79DA6",
"@. c #C79FA7",
"#. c #CFA3A7",
"$. c #DCAFAB",
"%. c #C3BEB1",
"&. c #CCBBB0",
"*. c #E1B0AB",
"=. c #E0B3AC",
"-. c #E2B3AC",
";. c #E8B5AC",
":. c #E9B8AD",
">. c #E9BCAF",
",. c #EABEAF",
"<. c #D1C989",
"1. c #EBE381",
"2. c #E7E18C",
"3. c #ECE588",
"4. c #E7E19F",
"5. c #EEE999",
"6. c #C5C0AE",
"7. c #C8C4B3",
"8. c #C9C5B4",
"9. c #CBC7B4",
"0. c #CDC8B4",
"q. c #CFCBB5",
"w. c #C7C1B9",
"e. c #D0CCB5",
"r. c #D2CEB6",
"t. c #D3CFB6",
"y. c #D5D1B7",
"u. c #D7D3BB",
"i. c #DBD7B9",
"p. c #D8D5BA",
"a. c #DEDBBA",
"s. c #DEDBBE",
"d. c #EAC0B0",
"f. c #EBC5B1",
"g. c #E8D5B7",
"h. c #EED6B7",
"j. c #EED8B7",
"k. c #E0DDBA",
"l. c #E2DFBD",
"z. c #E0DDBF",
"x. c #EFDAB8",
"c. c #EBDCB9",
"v. c #EFDCB9",
"b. c #F0DFBA",
"n. c #F0EBA4",
"m. c #F0ECA7",
"M. c #F0EDAC",
"N. c #E2E0B5",
"B. c #E5E3BC",
"V. c #E7E5BC",
"C. c #ECE3BF",
"Z. c #E8E6BD",
"A. c #E9E7BD",
"S. c #EBE9BF",
"D. c #ECEABE",
"F. c #EDEBBE",
"G. c #EEECBE",
"H. c #F0E2BB",
"J. c #F0E3BB",
"K. c #F0E4BB",
"L. c #F1E8BD",
"P. c #F2EBBE",
"I. c #F2ECBE",
"U. c #F0EEBF",
"Y. c #F1EFBF",
"T. c #F2EEBF",
"R. c #F2F1BC",
"E. c #B1A7C4",
"W. c #B7AEC8",
"Q. c #BDB5C6",
"!. c #BBB1CA",
"~. c #D2CCCC",
"^. c #DCD8C3",
"/. c #CEC6D0",
"(. c #D5CED2",
"). c #D6CFD3",
"_. c #D7CFDA",
"`. c #DBD4D7",
"'. c #D9D1D8",
"]. c #DFD7DC",
"[. c #DDD5DE",
"{. c #ECD4C2",
"}. c #E2DFC3",
"|. c #E1DCCD",
" X c #F3DBC4",
".X c #F3DEC4",
"XX c #E0DAD2",
"oX c #E4DFD4",
"OX c #E1DAD9",
"+X c #E0D9DA",
"@X c #E5E1C7",
"#X c #EAE8C5",
"$X c #ECE9C7",
"%X c #EEEBC7",
"&X c #EEECC7",
"*X c #E8E3CF",
"=X c #EBE8CA",
"-X c #EDEAC8",
";X c #ECE9CA",
":X c #F3E2C3",
">X c #F3EAC1",
",X c #F3EBC1",
"<X c #F3ECC1",
"1X c #F3EDC1",
"2X c #F1EFC2",
"3X c #F3F0C0",
"4X c #F2F1C0",
"5X c #F3F1C0",
"6X c #F2F1C1",
"7X c #F3F2C0",
"8X c #F1F0C2",
"9X c #E5E0D3",
"0X c None",
/* pixels */
"0X0X0X0X0X0X0X0X0X0X0X0X0X0X0X0X0X0X0X0X0X0X0X0X0X0X0X0X0X0X0X0X",
"0X0X0X0X0X0X0X0X0X0X0X0X0X0X0X0X0X0X0X0X0X0X0X0X0X0X0X0X0X0X0X0X",
"0X0X0X0X0X0X0X0X0X0X0X0X0X0X0X0X0X0X0X0X0X0X0X0X0X0X0X0X0X0X0X0X",
"0X0X0X0X0X0X0X. . . . . . 0X0X0X0X0X0X0X0X0X0X. . . 0X0X0X0X0X0X",
"0X0X0X0X0X0X0X2 2 2 2 $ X . 0X0X0X0X0X0X0X0X1 2 2 2 1 0X0X0X0X0X",
"0X0X0X0X0X. v 9.e.e.e.) O . . . . . . . . u %.e.e.e.{ < 0X0X0X0X",
"0X0X0X0X0X. m g.v.b.I.t.G n x x x x x l C _ B.L.v.v.&.> . 0X0X0X",
"0X0X0X0X0X. a -.:.d.J.Y.F.|._._._._._.'.@XG.4Xj.:.:.@.- . 0X0X0X",
"0X0X0X0X0X. p *.;.,.H.7X7X*X[.[.[.[.[.].;X7X7Xh.;.;.+.= . 0X0X0X",
"0X0X0X0X0X. i #.=.f.K.7X7X*X[.[.[.[.[.].;X7X7Xx.>.$.W # 0X0X0X0X",
"0X0X0X0X0X0X; y [ K.T.7X7X*X[.[.[.[.[.].;X7X7XP.c.P , 0X0X0X0X0X",
"0X0X0X0X0X0X. . ' 7X7X7X7X=XoXoXoXoXoX9X&X7X7X7XD.Z . 0X0X0X0X0X",
"0X0X0X0X0X. . . ' 7X7X7X7X6X8X8X8X8X8X8X6X7X7X7XD.Z . . . 0X0X0X",
"0X0X0X0X0X0X. . ' Z.{ o.F.7X7X7X7X7X7X7X7Xa.] 7.D.Z . . 0X0X0X0X",
"0X0X0X0X0X0X0X. ' k.M F A.7X7X7X7X7X7X7X7Xq.3 ) D.Z . 0X0X0X0X0X",
"0X0X0X0X0X. . . ' F.r.y.U.7X7X7X7X7X7X7X7XV.0.i.D.Z . . 0X0X0X0X",
"0X0X0X0X0X. . . ` >X>X1X5X7X7X7X7X7X7X7X7X3X,X>XC.N . . 0X0X0X0X",
"0X0X0X0X0X0X0X. R  X X:X3X7X7X7X7X7X7X7X7X<X.X X{.B . 0X0X0X0X0X",
"0X0X0X0X0X0X0X0XV U U E ..X.X.X.X.X.X.X.X. .T U I s 0X0X0X0X0X0X",
"0X0X0X0X0X0X0X0X. . . + 8 9 0 q t g r 9 9 4 o . . 0X0X0X0X0X0X0X",
"0X0X0X0X0X0X0X0X0X0X. + 8 9 e c O.8.Q 9 9 4 o . 0X0X0X0X0X0X0X0X",
"0X0X0X0X0X0X0X0X0X0X6 j D K Y <.3.m.6.K K A f 5 0X0X0X0X0X0X0X0X",
"0X0X0X0X0X0X0X0X0X% E.~.z.l.N.2.  1.4.l.l.^./.L . 0X0X0X0X0X0X0X",
"0X0X0X0X0X0X0X0X. & !.oX8X7XR.n.5.5.M.7X7X-X+X^ . 0X0X0X0X0X0X0X",
"0X0X0X0X0X0X0X0X. & W.XX2X7X7X7X7X7X7X7X7X$X`.! . 0X0X0X0X0X0X0X",
"0X0X0X0X0X0X0X0X0X0Xh } S.7X7X7X7X7X7X7X7Xu.H d 0X0X0X0X0X0X0X0X",
"0X0X0X0X0X0X0X0X0X0X. b }.%X#Xp.q.q.s.%X%Xw.: . 0X0X0X0X0X0X0X0X",
"0X0X0X0X0X0X0X0X0X0X. k ).OX(.S 2 2 | OXOXQ.* . 0X0X0X0X0X0X0X0X",
"0X0X0X0X0X0X0X0X0X0X0Xw / ( ~ 7 . . z ( ( J @ 0X0X0X0X0X0X0X0X0X",
"0X0X0X0X0X0X0X0X0X0X0X0X. . . 0X0X0X0X. . . 0X0X0X0X0X0X0X0X0X0X",
"0X0X0X0X0X0X0X0X0X0X0X0X0X0X0X0X0X0X0X0X0X0X0X0X0X0X0X0X0X0X0X0X",
"0X0X0X0X0X0X0X0X0X0X0X0X0X0X0X0X0X0X0X0X0X0X0X0X0X0X0X0X0X0X0X0X"
};
