/* XPM */
static char *b3b06e9ce4924b85b82f7b5553c41ff4V4oaUvwyDduf2vMB[] = {
/* columns rows colors chars-per-pixel */
"32 32 225 2 ",
"   c #181622",
".  c #181623",
"X  c #181424",
"o  c #181425",
"O  c #1A1626",
"+  c #1A1726",
"@  c #1C1927",
"#  c #1F1927",
"$  c #1A1729",
"%  c #1A1829",
"&  c #1B182B",
"*  c #1F1928",
"=  c #1C192A",
"-  c #1F1C28",
";  c #1C1C2A",
":  c #1F1D2E",
">  c #1F1D2F",
",  c #201928",
"<  c #201E28",
"1  c #281D29",
"2  c #201E30",
"3  c #1F2133",
"4  c #23212A",
"5  c #27252C",
"6  c #2A292D",
"7  c #2B2A2E",
"8  c #30212B",
"9  c #30242D",
"0  c #32262E",
"q  c #36242C",
"w  c #38252D",
"e  c #3A272E",
"r  c #3D282E",
"t  c #232133",
"y  c #202336",
"u  c #212538",
"i  c #23283C",
"p  c #302F30",
"a  c #3C2A30",
"s  c #3F2E33",
"d  c #323130",
"f  c #313330",
"g  c #363632",
"h  c #373A33",
"j  c #3A3E34",
"k  c #3D3E35",
"l  c #452C30",
"z  c #423034",
"x  c #423134",
"c  c #4C3435",
"v  c #513333",
"b  c #533337",
"n  c #5B3835",
"m  c #513B39",
"M  c #533C3A",
"N  c #533D3A",
"B  c #563E3B",
"V  c #5E3938",
"C  c #643D37",
"Z  c #6A3834",
"A  c #693A37",
"S  c #743F37",
"D  c #753F38",
"F  c #3E4036",
"G  c #3F4436",
"H  c #46493A",
"J  c #474E3A",
"K  c #48503A",
"L  c #52563F",
"P  c #684039",
"I  c #6C4139",
"U  c #77473D",
"Y  c #7B4339",
"T  c #7F463B",
"R  c #7F4B3E",
"E  c #262B41",
"W  c #31384D",
"Q  c #343E5B",
"!  c #595F42",
"~  c #424758",
"^  c #5E4C58",
"/  c #5F515F",
"(  c #684A41",
")  c #63444A",
"_  c #754B40",
"`  c #764B48",
"'  c #705044",
"]  c #755346",
"[  c #7F5A49",
"{  c #654C54",
"}  c #7E5D5E",
"|  c #626946",
" . c #636A47",
".. c #667548",
"X. c #697949",
"o. c #475066",
"O. c #4D5467",
"+. c #4D5567",
"@. c #485268",
"#. c #4E576B",
"$. c #5D5363",
"%. c #595365",
"&. c #57566B",
"*. c #555A71",
"=. c #555A73",
"-. c #525D74",
";. c #535F76",
":. c #655965",
">. c #735C63",
",. c #576174",
"<. c #51607D",
"1. c #596378",
"2. c #5B677D",
"3. c #5D677C",
"4. c #5C687F",
"5. c #75656F",
"6. c #756570",
"7. c #726B7A",
"8. c #82473B",
"9. c #80483D",
"0. c #83483C",
"q. c #8E4F3F",
"w. c #8C5241",
"e. c #8E5342",
"r. c #955441",
"t. c #9C5843",
"y. c #985844",
"u. c #9C5C46",
"i. c #845852",
"p. c #A35D46",
"a. c #936850",
"s. c #9C6E53",
"d. c #A56148",
"f. c #AA6248",
"g. c #A8654B",
"h. c #AE6449",
"j. c #B1664A",
"k. c #B0694C",
"l. c #B46A4C",
"z. c #B66D4F",
"x. c #B86E4F",
"c. c #B96F4F",
"v. c #B66F50",
"b. c #BA7151",
"n. c #BA7251",
"m. c #BD7352",
"M. c #BB7554",
"N. c #B07C5B",
"B. c #B27D5B",
"V. c #B57F5C",
"C. c #C17855",
"Z. c #C27956",
"A. c #C37D58",
"S. c #C47C58",
"D. c #C47E59",
"F. c #C77F59",
"G. c #788150",
"H. c #7D8752",
"J. c #7D8852",
"K. c #808B53",
"L. c #849A55",
"P. c #869D56",
"I. c #899658",
"U. c #8F9C5A",
"Y. c #929F5B",
"T. c #B7805D",
"R. c #BC845F",
"E. c #8AA258",
"W. c #9BA45F",
"Q. c #98A65E",
"!. c #91AA5A",
"~. c #9CAB60",
"^. c #9FBB61",
"/. c #A0AF62",
"(. c #A6B765",
"). c #A0BD61",
"_. c #ADBE67",
"`. c #C9815B",
"'. c #C9825B",
"]. c #CE875F",
"[. c #C28861",
"{. c #C48A62",
"}. c #C58A62",
"|. c #C68B62",
" X c #D18B61",
".X c #D38D62",
"XX c #D49165",
"oX c #D69367",
"OX c #D89769",
"+X c #DB996A",
"@X c #DC9869",
"#X c #DD9869",
"$X c #DF9B6B",
"%X c #E09B6B",
"&X c #E19D6C",
"*X c #A3C163",
"=X c #A4C263",
"-X c #B2C46A",
";X c #B9CC6D",
":X c #BDD16F",
">X c #C0D470",
",X c #D2E077",
"<X c #5B6883",
"1X c #5D6981",
"2X c #656A80",
"3X c #606C83",
"4X c #616D85",
"5X c #637087",
"6X c #62718B",
"7X c #65738A",
"8X c #69778F",
"9X c #6B768E",
"0X c #6B768F",
"qX c #717183",
"wX c #797382",
"eX c #6A7890",
"rX c #6C7A90",
"tX c #697994",
"yX c #6E7C94",
"uX c #71819C",
"iX c #7586A0",
"pX c #7888A0",
"aX c #7A8AA2",
"sX c #7B8CA5",
"dX c #8192AB",
/* pixels */
">X>X>X>X>X>X>X>X>X:XI.K.K.K.K.K.K.K.K.K.K.K._.>X>X>X>X>X>X>X>X>X",
">X>X>X>X>X>X>X>X>X;Xp o o o o o o o o o o o U.>X>X>X>X>X>X>X>X>X",
">X>X>X>X>X>X>X-X~.Q.7 o 1 e e z z a e 8 o o ..P.!.=X=X>X>X>X>X>X",
">X>X>X=X=X=X=XJ.o o o o C j.x.$X&XD.j.e.o o o o K =X=X=X>X>X>X>X",
">X>X=X=X=X).^.X.o o @ , P j.x.$X&XD.j.e., , o o J ^.^.*X>X>X>X>X",
">X>X=X=X=XG - @ o * R.OXD.j.x.$X&XD.j.b.OXOXm o o - - E.>X>X>X>X",
">X>X=X=X=Xj o o o , {.&X'.j.x.$X&XD.j.m.&X&XM o o o o /.>X>X>X>X",
">X>XL.h h < o B V.T.+X&X'.j.x.$X&XD.j.m.&X&X[.V.[ o o g k G.>X>X",
">X>XU.o o o o ( &X&X&X&X'.j.x.$X&XD.j.m.&X&X&X&Xs.o o o o  .>X>X",
"H.! H o o ] a.B.&X&X&X&X'.j.x.$X&XD.j.m.&X&X&X&X{.a.a.0 o d !  .",
"L o o o o B.&X&X&X&X&X&X'.j.x.$X&XD.j.m.&X&X&X&X&X&X&Xs o o o 5 ",
"L o 0 ' ' {.&X&X&X&X&X&X'.j.x.$X&XD.j.m.&X&X&X&X&X&X&X_ n r o 5 ",
"L o M &X&X&X&X&X&X&X&X&X'.j.x.$X&XD.j.m.&X&X&X&X&X&X&Xb.j.I o 5 ",
"L o M &X&X&X&X&X&X&X&X&X'.j.x.$X&XD.j.m.&X&X&X&X&X&X&Xb.j.I o 5 ",
"L o M &X&X&X&X&X&X&X&X&X'.j.x.$X&XD.j.m.&X&X&X&X&X&X&Xb.j.I o 5 ",
"L o M &X&X&X&X&X&X&X$X$XA.f.k.XXXXM.f.v.$X$X%X&X&X&X&Xb.j.I o 5 ",
"L o M &X&X&X&X&X&X$Xx.j.q.Z Z Z Z Z Z Y j.j..X&X&X&X&Xb.j.I o 5 ",
"L o M &X&X&X&X&X&X$Xx.j.q.Z Z Z Z Z Z Y j.j..X&X&X&X&Xb.j.I o 5 ",
"L o M &X&X&X&X Xx.z.T D { =.=.=.=.=.=.$.D D d.x.D.&X&Xb.j.I o 5 ",
"L o M &X&X&X&X].j.h.S Z ^ <.<.<.<.<.<.&.Z Z t.j.C.&X&Xb.j.I o 5 ",
"L o M &X&X'.C.g.8.9./ %.2XuXuXuXuXuXuX0X%.%.` 8.y.C.C.l.j.I o 5 ",
"L o M &X&Xm.j.r.Z Z =.<.tXdXdXdXdXdXdXiX<.<.) Z 9.j.j.j.j.I o 5 ",
"L o c '.'.u.q.i.5.6.0XtX2.+.+.+.+.rXdXsXtXtX7.5.} q.q.f.j.I o 5 ",
"L o l j.j.Y Z >.dXdXdXdX+.. . . . ,.dXdXdXdXdXdXwXZ Z p.j.I o 5 ",
"L o q R R V b :.dXdXdXdX#.- - - - 1.dXaX5X5XaXdXqXb b U R v o 5 ",
"L o o o o y i @.dXdXdXdX;.i i i i 4.dXeXi i 7XdX4Xi i & o o o 5 ",
" .d 7 o o 3 u o.dXdXdXdX;.E E E E 1XdXyXW W 0XdX3Xu u $ o 4 d F ",
">X>XQ.o o . . ~ dXdXdXdX<XQ Q Q Q 6XdXdXdXdXdXdX3.. . o o  .>X>X",
">X,XQ.o o . . ~ dXdXdXdX<XQ Q Q Q 6XdXdXdXdXdXdX3.. . o o  .>X>X",
">X,XQ.o o o o * t t t t > & & & & 2 t t t t t t > o o o o  .>X>X",
">X>XQ.o o o o o o o o o o o o o o o o o o o o o o o o o o  .>X>X",
">X>X-XY.Y.Y.Y.Y.Y.Y.Y.Y.Y.Y.Y.Y.Y.Y.Y.Y.Y.Y.Y.Y.Y.Y.Y.Y.Y.(.>X>X"
};
