/* XPM */
static char *b635e5d2468e42fcda285011dbd1b2fcIvN2SqrHGL5Xowix[] = {
/* columns rows colors chars-per-pixel */
"32 32 10 1 ",
"  c None",
". c #5F7A79",
"X c #90625D",
"o c #AA7959",
"O c #6E967C",
"+ c #B68962",
"@ c #C49A6C",
"# c #97BB8E",
"$ c #AED499",
"% c #C2E09A",
/* pixels */
"                                ",
"            .........           ",
"          ..#$$$$$$##.          ",
"        ..#$$$%%%$%%$#..        ",
"       .#$$$$$%%%$%%$$##.       ",
"      .#$%%%$%%%$$$$$$$$#.      ",
"     .##$%%%%%%$$$%%%$$$##.     ",
"     .$$$$$%%$$$$$%%%%%%##.     ",
"    .#$$$$$$$$$$$$$$$%%%$$#.    ",
"    .#$$$$$$$$$$$$$$$$$$$$#.    ",
"    .###$$$##$$$$$$###$$###.    ",
"    .###$$$##$$$$$$###$$##.     ",
"    .###########$$#$$$####.     ",
"     .###$$$###############.    ",
"     .#####################.    ",
"    .O####################O.    ",
"    .OOO#OO##OOO#####OOOOOO.    ",
"    .OOO#OO##OOO#####OOOOOO.    ",
"    .OOOOOOOO#####OOO###OO.     ",
"     .OO###OOOOOOOOOOOOOOO.     ",
"     .OOOOOOOOOOOOOOOOOOOO.     ",
"      .OOOOOOOOOOOOOOOOOO.      ",
"       ..OOOOOOOOOOOOO...       ",
"         .............          ",
"            XooooooX            ",
"            X+oooo+X            ",
"            X++++++X            ",
"            X+@+@@@X            ",
"           X@@@@@@@@X           ",
"            @@@@@@@@            ",
"               @@               ",
"                                "
};
